<?xml version="1.0" encoding="UTF-8"?>
<svg id="Capa_1" data-name="Capa 1" xmlns="http://www.w3.org/2000/svg" xmlns:xlink="http://www.w3.org/1999/xlink" viewBox="0 0 756.94 306.05">
  <defs>
    <style>
      .cls-1 {
        fill: url(#Degradado_sin_nombre_84-3);
      }

      .cls-1, .cls-2, .cls-3, .cls-4, .cls-5, .cls-6, .cls-7 {
        stroke-miterlimit: 10;
      }

      .cls-1, .cls-2, .cls-4, .cls-5, .cls-6, .cls-7 {
        stroke: #aaaeb0;
        stroke-width: 4px;
      }

      .cls-2 {
        fill: url(#Degradado_sin_nombre_84-4);
      }

      .cls-3 {
        stroke: #000;
        stroke-width: .25px;
      }

      .cls-4 {
        fill: url(#Degradado_sin_nombre_84-5);
      }

      .cls-5 {
        fill: url(#Degradado_sin_nombre_84-6);
      }

      .cls-6 {
        fill: url(#Degradado_sin_nombre_84-2);
      }

      .cls-7 {
        fill: url(#Degradado_sin_nombre_84);
      }

      .cls-8 {
        fill: #feeb07;
      }
    </style>
    <linearGradient id="Degradado_sin_nombre_84" data-name="Degradado sin nombre 84" x1="93.02" y1="256.91" x2="93.02" y2="126.05" gradientUnits="userSpaceOnUse">
      <stop offset="0" stop-color="#1e5caf"/>
      <stop offset=".8" stop-color="#3e3290"/>
    </linearGradient>
    <linearGradient id="Degradado_sin_nombre_84-2" data-name="Degradado sin nombre 84" x1="227.96" y1="258.4" x2="227.96" y2="124.55" xlink:href="#Degradado_sin_nombre_84"/>
    <linearGradient id="Degradado_sin_nombre_84-3" data-name="Degradado sin nombre 84" x1="351.82" x2="351.82" xlink:href="#Degradado_sin_nombre_84"/>
    <linearGradient id="Degradado_sin_nombre_84-4" data-name="Degradado sin nombre 84" x1="505.77" x2="505.77" xlink:href="#Degradado_sin_nombre_84"/>
    <linearGradient id="Degradado_sin_nombre_84-5" data-name="Degradado sin nombre 84" x1="585.64" x2="585.64" xlink:href="#Degradado_sin_nombre_84"/>
    <linearGradient id="Degradado_sin_nombre_84-6" data-name="Degradado sin nombre 84" x1="681.77" y1="258.4" x2="681.77" y2="124.55" xlink:href="#Degradado_sin_nombre_84"/>
  </defs>
  <g>
    <path class="cls-7" d="M141.19,126.7c.76-.43,1.6-.65,2.51-.65h37.05c.91,0,1.57.22,1.98.65.41.44.44.97.07,1.59l-60.24,126.38c-.19.63-.71,1.15-1.56,1.59-.86.44-1.74.65-2.65.65h-41.95c-1.82,0-2.72-.62-2.71-1.87l4.66-65.05c.11-.38-.05-.59-.49-.66-.44-.06-.73.16-.87.66l-30.43,64.68c-.37.63-.94,1.15-1.7,1.59-.77.44-1.6.65-2.51.65H5.3c-.91,0-1.57-.22-1.99-.65s-.44-.96-.07-1.59l60.24-126.38c.36-.62.93-1.15,1.7-1.59.76-.43,1.6-.65,2.51-.65h41.4c2,0,2.99.62,2.99,1.87l-4.77,65.43c-.11.38.06.56.51.56s.84-.25,1.18-.75l30.48-64.87c.36-.62.93-1.15,1.7-1.59Z"/>
    <path class="cls-6" d="M162.03,249.71c-7.08-5.8-9.12-13.74-6.11-23.84.41-1.37,1.2-3.43,2.38-6.17l26.89-56.46c5.7-11.84,15.27-21.25,28.7-28.23,13.42-6.98,28.68-10.47,45.75-10.47,15.43,0,26.77,2.93,34.02,8.79,7.24,5.86,9.36,13.83,6.36,23.93-.37,1.25-1.15,3.24-2.33,5.98l-27.16,56.46c-5.53,11.84-15.09,21.25-28.7,28.23-13.61,6.98-28.95,10.47-46.02,10.47-15.44,0-26.7-2.9-33.78-8.69ZM219.01,228.96c3.12-1.93,5.54-4.58,7.27-7.95l27.94-59.07c.36-.62.7-1.43,1-2.43.78-2.62.48-4.67-.89-6.17-1.37-1.5-3.78-2.24-7.23-2.24-3.81,0-7.29,1-10.42,2.99-3.14,1.99-5.46,4.61-6.97,7.85l-28.22,59.07-.88,2.06c-.82,2.74-.55,4.89.8,6.45,1.35,1.56,3.75,2.34,7.2,2.34,3.81,0,7.28-.96,10.4-2.9Z"/>
    <path class="cls-1" d="M341.18,255.04l5.76-49.54c-.04-.5-.42-.75-1.14-.75h-3.81c-.73,0-1.37.31-1.91.93l-23.3,48.98c-.37.63-.94,1.15-1.7,1.59-.77.44-1.6.65-2.51.65h-37.59c-.91,0-1.57-.22-1.99-.65-.42-.44-.44-.96-.07-1.59l60.24-126.38c.36-.62.93-1.15,1.7-1.59.76-.43,1.6-.65,2.51-.65h56.93c13.98,0,24.11,3.06,30.37,9.16,6.26,6.11,7.87,14.27,4.83,24.49-.89,2.99-1.76,5.3-2.6,6.92-3.35,6.98-8.17,13.24-14.45,18.79-6.28,5.55-13.47,10-21.55,13.37-.4.13-.72.28-.96.47-.24.19-.3.41-.19.65l-3.4,54.4-.11.37c-.45,1.49-1.67,2.24-3.66,2.24h-38.68c-2,0-2.9-.62-2.71-1.87ZM364.87,153.53l-12.53,26.55c-.19.63.08.93.81.93h7.35c5.45,0,10.35-1.52,14.71-4.58,4.36-3.05,7.34-7.26,8.93-12.62,1.08-3.61.72-6.39-1.07-8.32-1.79-1.93-4.77-2.9-8.94-2.9h-7.35c-.73,0-1.37.31-1.91.93Z"/>
    <path class="cls-2" d="M576.34,126.7c.41.44.44.97.07,1.59l-10.38,22.06c-.37.63-.94,1.15-1.7,1.59-.77.44-1.6.65-2.51.65h-32.96c-.91,0-1.46.31-1.64.93l-48.37,101.14c-.19.63-.71,1.15-1.56,1.59-.86.44-1.74.65-2.65.65h-37.32c-2,0-2.77-.75-2.33-2.24l48.37-101.14c.19-.62-.09-.93-.81-.93h-31.6c-.91,0-1.57-.22-1.99-.65-.41-.44-.44-.96-.07-1.59l10.38-22.06c.36-.62.98-1.15,1.84-1.59.85-.43,1.74-.65,2.65-.65h110.59c.91,0,1.57.22,1.98.65Z"/>
    <path class="cls-4" d="M533.67,256.25c-.42-.44-.44-.96-.07-1.59l60.24-126.38c.36-.62.93-1.15,1.7-1.59.76-.43,1.6-.65,2.51-.65h37.59c.91,0,1.57.22,1.98.65.41.44.44.97.07,1.59l-60.24,126.38c-.37.63-.94,1.15-1.7,1.59-.77.44-1.6.65-2.51.65h-37.59c-.91,0-1.57-.22-1.99-.65Z"/>
    <path class="cls-5" d="M616.27,250.08c-7.16-5.54-9.31-13.12-6.45-22.71.33-1.12,1.09-3.05,2.27-5.79l28.88-60.39c5.15-11.22,14.34-20.13,27.57-26.73,13.22-6.6,28.19-9.91,44.9-9.91,15.25,0,26.49,2.8,33.72,8.41,7.23,5.61,9.41,13.21,6.56,22.81-.33,1.12-1.09,3.06-2.27,5.8l-3.42,6.92c-.37.62-.93,1.15-1.7,1.59-.77.44-1.6.65-2.51.65h-37.59c-.91,0-1.57-.22-1.99-.65-.41-.43-.44-.96-.07-1.59l3.53-7.29.83-1.87c.74-2.49.42-4.49-.94-5.98-1.37-1.5-3.6-2.24-6.69-2.24-3.45,0-6.64.93-9.55,2.8-2.92,1.87-5.09,4.3-6.53,7.29l-28.93,60.57-.88,2.06c-.74,2.5-.42,4.46.97,5.89,1.39,1.43,3.54,2.15,6.44,2.15,3.45,0,6.68-.93,9.69-2.8,3.01-1.87,5.23-4.3,6.67-7.29l5.74-11.96c.55-.62.28-.93-.81-.93h-6.81c-.91,0-1.57-.22-1.98-.65-.41-.43-.44-.96-.07-1.59l9.44-19.82c.19-.62.71-1.15,1.56-1.59.85-.44,1.74-.66,2.65-.66h48.76c.91,0,1.57.22,1.98.66.42.44.44.97.07,1.59l-16.62,34.77c-5.16,11.22-14.41,20.16-27.74,26.83-13.34,6.67-28.36,10-45.06,10-15.25,0-26.46-2.77-33.62-8.32Z"/>
  </g>
  <g>
    <path class="cls-3" d="M.12,279.55h11.11v3.84h-5.43v6.47h4.73v3.97h-4.73v11.43H.12v-25.71Z"/>
    <path class="cls-3" d="M16.6,279.55h6.47l4.79,25.71h-5.24l-.86-5.43h-3.78l-.89,5.43h-5.36l4.86-25.71ZM21.23,296.43l-1.36-10.03-1.36,10.03h2.73Z"/>
    <path class="cls-3" d="M30.47,279.55h6.7c4.41,0,8.19,1.02,8.19,6.73,0,3.11-1.43,4.73-3.78,5.17,2.98.38,4.57,2.54,4.57,6.19,0,5.33-2.82,7.62-7.78,7.62h-7.9v-25.71ZM37.26,289.83c2.57,0,3.11-1.24,3.11-3.4,0-2.03-1.11-3.08-3.24-3.08h-.98v6.47h1.11ZM37.36,301.29c2.51,0,3.3-1.27,3.3-3.74,0-2.89-.86-3.97-3.33-3.97h-1.17v7.71h1.21Z"/>
    <path class="cls-3" d="M49.13,279.55h7.08c5.17,0,8.54,1.4,8.54,6.79,0,3.17-.6,5.27-3.14,6.47l3.52,12.44h-5.87l-2.82-11.52h-1.62v11.52h-5.68v-25.71ZM56.4,290.46c2.38,0,3.08-1.33,3.08-3.62s-.67-3.49-2.82-3.49h-1.84v7.11h1.59Z"/>
    <path class="cls-3" d="M68.21,279.55h5.68v25.71h-5.68v-25.71Z"/>
    <path class="cls-3" d="M77.38,297.06v-9.27c0-5.33,1.84-8.6,7.71-8.6s7.4,3.05,7.4,7.43v2.22h-5.55v-2.57c0-1.49-.03-3.08-1.84-3.08s-1.97,1.62-1.97,3.17v12.09c0,1.75.29,3.14,1.97,3.14,1.78,0,1.84-1.59,1.84-3.14v-2.7h5.55v2.22c0,4.38-1.65,7.65-7.4,7.65s-7.71-3.36-7.71-8.57Z"/>
    <path class="cls-3" d="M99.22,279.55h6.48l4.79,25.71h-5.24l-.86-5.43h-3.78l-.89,5.43h-5.36l4.86-25.71ZM103.85,296.43l-1.37-10.03-1.36,10.03h2.73Z"/>
    <path class="cls-3" d="M112.33,297.06v-9.27c0-5.33,1.84-8.6,7.71-8.6s7.4,3.05,7.4,7.43v2.22h-5.55v-2.57c0-1.49-.03-3.08-1.84-3.08s-1.97,1.62-1.97,3.17v12.09c0,1.75.29,3.14,1.97,3.14,1.78,0,1.84-1.59,1.84-3.14v-2.7h5.55v2.22c0,4.38-1.65,7.65-7.4,7.65s-7.71-3.36-7.71-8.57Z"/>
    <path class="cls-3" d="M130.58,279.55h5.68v25.71h-5.68v-25.71Z"/>
    <path class="cls-3" d="M139.75,297.16v-9.55c0-5.3,1.94-8.41,7.71-8.41s7.78,3.11,7.78,8.41v9.55c0,5.3-1.97,8.47-7.78,8.47s-7.71-3.17-7.71-8.47ZM149.43,298.59v-12.38c0-1.52-.19-3.01-1.97-3.01-1.68,0-1.9,1.49-1.9,3.01v12.38c0,1.46.13,3.02,1.9,3.02s1.97-1.56,1.97-3.02ZM147.78,271.13h5.27l-4,6.38h-3.27l2-6.38Z"/>
    <path class="cls-3" d="M158.7,279.55h4l5.27,12.38v-12.38h4.7v25.71h-3.84l-5.27-13.33v13.33h-4.86v-25.71Z"/>
    <path class="cls-3" d="M187.87,294.75l-4.89-15.2h5.36l2.44,8.12,2.19-8.12h5.14l-4.79,15.2v10.5h-5.46v-10.5Z"/>
    <path class="cls-3" d="M208.76,279.55h6.09l2.82,14.95,3.05-14.95h5.87l.45,25.71h-4.03l-.48-17.11-2.98,17.11h-3.59l-3.17-17.23-.38,17.23h-4.09l.45-25.71Z"/>
    <path class="cls-3" d="M230.41,297.16v-9.55c0-5.3,1.94-8.41,7.71-8.41s7.78,3.11,7.78,8.41v9.55c0,5.3-1.97,8.47-7.78,8.47s-7.71-3.17-7.71-8.47ZM240.09,298.59v-12.38c0-1.52-.19-3.01-1.97-3.01-1.68,0-1.9,1.49-1.9,3.01v12.38c0,1.46.13,3.02,1.9,3.02s1.97-1.56,1.97-3.02Z"/>
    <path class="cls-3" d="M249.36,279.55h4l5.27,12.38v-12.38h4.7v25.71h-3.84l-5.27-13.33v13.33h-4.86v-25.71Z"/>
    <path class="cls-3" d="M269.48,283.77h-3.87v-4.22h13.43v4.22h-3.84v21.49h-5.71v-21.49Z"/>
    <path class="cls-3" d="M283.76,279.55h6.47l4.79,25.71h-5.24l-.86-5.43h-3.78l-.89,5.43h-5.36l4.86-25.71ZM288.4,296.43l-1.36-10.03-1.37,10.03h2.73Z"/>
    <path class="cls-3" d="M296.14,301.95c2.32,0,3.08-.38,3.08-2.6v-19.8h5.68v20.06c0,4.19-1.33,6.32-6,6.32h-2.76v-3.97Z"/>
    <path class="cls-3" d="M308.71,279.55h11.55v3.87h-5.87v6.38h4.47v3.94h-4.47v7.68h5.93v3.84h-11.62v-25.71Z"/>
    <path class="cls-3" d="M331.03,279.55h6.51c6.7,0,8.63,2.41,8.63,8.12v9.33c0,5.78-1.94,8.25-8.57,8.25h-6.57v-25.71ZM337.6,301.32c2.57,0,2.73-1.11,2.73-3.43v-11.2c0-2.25-.25-3.17-2.76-3.17h-.86v17.81h.89Z"/>
    <path class="cls-3" d="M349.63,279.55h11.55v3.87h-5.87v6.38h4.48v3.94h-4.48v7.68h5.94v3.84h-11.62v-25.71Z"/>
    <path class="cls-3" d="M371.94,279.55h11.55v3.87h-5.87v6.38h4.48v3.94h-4.48v7.68h5.94v3.84h-11.62v-25.71Z"/>
    <path class="cls-3" d="M385.56,297.48l4.86-.73c.06,3.33.82,4.57,2.25,4.57,1.17,0,1.43-.98,1.43-1.87,0-2.13-1.08-3.4-2.83-4.89l-2.22-1.94c-1.97-1.65-3.46-3.59-3.46-6.7,0-4.35,2.76-6.73,7.2-6.73,5.49,0,6.28,4.29,6.38,7.3l-4.89.6c-.06-2.29-.22-3.75-1.68-3.75-1.05,0-1.52,1.11-1.52,2,0,1.9.98,2.92,2.48,4.22l2.13,1.87c2.22,1.9,4,4.16,4,7.71s-2.63,6.47-6.73,6.47c-4.86,0-7.21-2.44-7.4-8.16Z"/>
    <path class="cls-3" d="M404.76,283.77h-3.87v-4.22h13.42v4.22h-3.84v21.49h-5.71v-21.49Z"/>
    <path class="cls-3" d="M416.57,279.55h7.08c5.17,0,8.54,1.4,8.54,6.79,0,3.17-.6,5.27-3.14,6.47l3.52,12.44h-5.87l-2.83-11.52h-1.62v11.52h-5.68v-25.71ZM423.84,290.46c2.38,0,3.08-1.33,3.08-3.62s-.67-3.49-2.83-3.49h-1.84v7.11h1.59Z"/>
    <path class="cls-3" d="M435.27,297.29v-17.74h5.62v18.6c0,1.62.19,3.4,2,3.4s1.97-1.78,1.97-3.4v-18.6h5.65v17.74c0,5.39-1.71,8.35-7.62,8.35s-7.62-2.95-7.62-8.35Z"/>
    <path class="cls-3" d="M453.77,297.06v-9.27c0-5.33,1.84-8.6,7.71-8.6s7.39,3.05,7.39,7.43v2.22h-5.55v-2.57c0-1.49-.03-3.08-1.84-3.08s-1.97,1.62-1.97,3.17v12.09c0,1.75.29,3.14,1.97,3.14,1.78,0,1.84-1.59,1.84-3.14v-2.7h5.55v2.22c0,4.38-1.65,7.65-7.39,7.65s-7.71-3.36-7.71-8.57Z"/>
    <path class="cls-3" d="M474.31,283.77h-3.87v-4.22h13.43v4.22h-3.84v21.49h-5.71v-21.49Z"/>
    <path class="cls-3" d="M485.93,297.29v-17.74h5.62v18.6c0,1.62.19,3.4,2,3.4s1.97-1.78,1.97-3.4v-18.6h5.65v17.74c0,5.39-1.71,8.35-7.62,8.35s-7.62-2.95-7.62-8.35Z"/>
    <path class="cls-3" d="M504.78,279.55h7.08c5.17,0,8.54,1.4,8.54,6.79,0,3.17-.6,5.27-3.14,6.47l3.52,12.44h-5.87l-2.82-11.52h-1.62v11.52h-5.68v-25.71ZM512.05,290.46c2.38,0,3.08-1.33,3.08-3.62s-.67-3.49-2.82-3.49h-1.84v7.11h1.59Z"/>
    <path class="cls-3" d="M527.44,279.55h6.47l4.79,25.71h-5.24l-.86-5.43h-3.78l-.89,5.43h-5.36l4.86-25.71ZM532.08,296.43l-1.36-10.03-1.37,10.03h2.73Z"/>
    <path class="cls-3" d="M540.49,297.48l4.86-.73c.06,3.33.82,4.57,2.25,4.57,1.17,0,1.43-.98,1.43-1.87,0-2.13-1.08-3.4-2.83-4.89l-2.22-1.94c-1.97-1.65-3.46-3.59-3.46-6.7,0-4.35,2.76-6.73,7.2-6.73,5.49,0,6.28,4.29,6.38,7.3l-4.89.6c-.06-2.29-.22-3.75-1.68-3.75-1.05,0-1.52,1.11-1.52,2,0,1.9.98,2.92,2.48,4.22l2.13,1.87c2.22,1.9,4,4.16,4,7.71s-2.63,6.47-6.73,6.47c-4.86,0-7.21-2.44-7.4-8.16Z"/>
    <path class="cls-3" d="M568.74,294.75l-4.89-15.2h5.36l2.44,8.12,2.19-8.12h5.14l-4.79,15.2v10.5h-5.46v-10.5Z"/>
    <path class="cls-3" d="M588.93,297.06v-9.27c0-5.33,1.84-8.6,7.71-8.6s7.39,3.05,7.39,7.43v2.22h-5.55v-2.57c0-1.49-.03-3.08-1.84-3.08s-1.97,1.62-1.97,3.17v12.09c0,1.75.29,3.14,1.97,3.14,1.78,0,1.84-1.59,1.84-3.14v-2.7h5.55v2.22c0,4.38-1.65,7.65-7.39,7.65s-7.71-3.36-7.71-8.57Z"/>
    <path class="cls-3" d="M610.76,279.55h6.47l4.79,25.71h-5.24l-.86-5.43h-3.78l-.89,5.43h-5.36l4.86-25.71ZM615.4,296.43l-1.36-10.03-1.37,10.03h2.73Z"/>
    <path class="cls-3" d="M624.64,279.55h4l5.27,12.38v-12.38h4.7v25.71h-3.84l-5.27-13.33v13.33h-4.86v-25.71ZM630.22,275.2c-.92,0-1.14.63-1.14,1.3h-2.48c-.03-2.6.67-4.51,2.86-4.51,1.55,0,2.54,1.4,3.9,1.4.73,0,.98-.54.98-1.21h2.29c0,2.06-.22,4.51-2.44,4.51-1.59,0-2.73-1.49-3.97-1.49Z"/>
    <path class="cls-3" d="M642.44,279.55h11.55v3.87h-5.87v6.38h4.47v3.94h-4.47v7.68h5.93v3.84h-11.62v-25.71Z"/>
    <path class="cls-3" d="M656.63,279.55h7.08c5.17,0,8.54,1.4,8.54,6.79,0,3.17-.6,5.27-3.14,6.47l3.52,12.44h-5.87l-2.82-11.52h-1.62v11.52h-5.68v-25.71ZM663.9,290.46c2.38,0,3.08-1.33,3.08-3.62s-.67-3.49-2.82-3.49h-1.84v7.11h1.59Z"/>
    <path class="cls-3" d="M675.71,279.55h5.68v25.71h-5.68v-25.71ZM678.82,271.13h5.27l-4,6.38h-3.27l2-6.38Z"/>
    <path class="cls-3" d="M688.85,279.55h6.47l4.79,25.71h-5.24l-.86-5.43h-3.78l-.89,5.43h-5.36l4.86-25.71ZM693.48,296.43l-1.37-10.03-1.36,10.03h2.73Z"/>
    <path class="cls-3" d="M701.89,297.48l4.86-.73c.06,3.33.83,4.57,2.25,4.57,1.17,0,1.43-.98,1.43-1.87,0-2.13-1.08-3.4-2.82-4.89l-2.22-1.94c-1.97-1.65-3.46-3.59-3.46-6.7,0-4.35,2.76-6.73,7.21-6.73,5.49,0,6.28,4.29,6.38,7.3l-4.89.6c-.06-2.29-.22-3.75-1.68-3.75-1.05,0-1.52,1.11-1.52,2,0,1.9.98,2.92,2.48,4.22l2.13,1.87c2.22,1.9,4,4.16,4,7.71s-2.63,6.47-6.73,6.47c-4.86,0-7.2-2.44-7.39-8.16Z"/>
  </g>
  <g>
    <path d="M483.27,60.25l-.75-11.22c-3.26-.04-6.64,1.38-9.18,3.38-1.3,1.02-2.21,2.75-3.85,3.26l-77.08,16.9L224.28,31.82l.39-.92,20.34-8.33c47.59,12.15,95.04,24.88,142.84,36.17l71.8-37.59,3.46-1.41,73.27-15.5,1.42.64,14.99,13.08c.62-.01,5.41-9.17,6.75-10.46,1.22-1.18,8.91-6.26,10.55-7.05.46-.22.86-.51,1.4-.46l19.29,38.46c.18.57-.16.86-.48,1.24-.46.55-9.05,7.06-9.61,7.27-.53.2-.87.23-1.37-.09l-17.25-15c-4.87.77-9.25,3.59-14.15,4.46-5.21-1.63-9.97-4.79-15.27-5.94l-20.52,4.8,1.5,5.23,15.87-2.95c.36.13,2.83,6.52,2.78,6.89-.06.46-.91.68-1.33.82-2.53.83-15.3,2.48-16.21,3.28-.63.55-.79,5.51-1.37,6.84-.4.92-6.29,1.45-7.56,1.52l-8.3-19.02c-.86,2.44-2.49,4.58-3.2,7.1-1.27,4.48-1.19,10.01-2.45,14.39-.08.29-.25.95-.55.95h-8.06Z"/>
    <path class="cls-8" d="M644.82,21.36l-5.62,44.88,43.63-9.73.52,1.01-44.37,28.17,10.33,16.83-28.97-9.29-21.81,20.52,2.43-20.95-42.28,9.65-1.2-.49,24.36-18.88c-.47,0-.96-.08-1.39-.3-11.24-5.71-23.78-9.94-35.22-15.35-.66-.31-2.23-.65-1.99-1.56l67.21,5.26,34.36-49.77Z"/>
    <path class="cls-8" d="M595.43,48.33l4.45,9.11c-.12.62-5.26,3.63-5.7,3.55l-5.85-6.51v-.54c2.24-.99,4.18-3.88,6.17-5.25.32-.22.37-.52.94-.37Z"/>
  </g>
</svg>